<svg width="304.8" height="100.8" viewBox="0 0 304.8 100.8" xmlns="http://www.w3.org/2000/svg"><g id="svgGroup" stroke-linecap="round" fill-rule="evenodd" font-size="9pt" stroke="#ffffff" stroke-width="0.25mm" fill="#ffffff" style="stroke:#ffffff;stroke-width:0.25mm;fill:#ffffff"><path d="M 73.4 6 L 67.7 47.9 L 67 47.9 L 58.4 6 L 40.1 6 L 31.4 47.9 L 30.7 47.9 L 25.1 6 L 0 6 L 11.8 81 L 43.1 81 L 48.5 53.4 L 49.9 53.4 L 55.4 81 L 86.8 81 L 98.5 6 L 73.4 6 Z M 198.1 81 L 174.1 81 L 174.1 39 L 172.4 39 A 46.072 46.072 0 0 0 170.108 39.055 A 39.861 39.861 0 0 0 169.35 39.1 Q 167.9 39.2 166.8 39.75 Q 165.7 40.3 165.1 41.4 A 4.17 4.17 0 0 0 164.74 42.329 Q 164.502 43.227 164.5 44.48 A 13.168 13.168 0 0 0 164.5 44.5 L 164.5 81 L 140.5 81 L 140.5 21 L 152.5 21 L 157.9 26.5 A 24.549 24.549 0 0 1 172.093 19.553 A 34.347 34.347 0 0 1 177.1 19.2 Q 188.9 19.2 194.3 24.1 A 30.254 30.254 0 0 1 210.635 19.206 A 36.433 36.433 0 0 1 211.3 19.2 A 41.704 41.704 0 0 1 216.938 19.557 Q 219.805 19.949 222.158 20.772 A 17.869 17.869 0 0 1 226.35 22.85 Q 231.402 26.297 231.683 32.285 A 15.237 15.237 0 0 1 231.7 33 L 231.7 81 L 207.7 81 L 207.7 39 L 206 39 Q 204.6 39 203.2 39.1 A 8.977 8.977 0 0 0 201.964 39.271 A 6.552 6.552 0 0 0 200.75 39.65 A 4.301 4.301 0 0 0 199.192 40.801 A 5.231 5.231 0 0 0 198.95 41.1 A 3.853 3.853 0 0 0 198.379 42.223 Q 198.216 42.722 198.143 43.318 A 7.722 7.722 0 0 0 198.1 43.8 L 198.1 81 Z M 267 99 L 243 100.8 L 243 21 L 255 21 L 259.4 27 Q 263.582 20.845 273.368 19.547 A 42.911 42.911 0 0 1 279 19.2 A 33.052 33.052 0 0 1 284.372 19.613 Q 287.325 20.1 289.771 21.161 A 18.819 18.819 0 0 1 291.1 21.8 Q 296 24.4 299.05 28.75 A 27.561 27.561 0 0 1 302.613 35.921 A 33.457 33.457 0 0 1 303.45 38.9 A 53.063 53.063 0 0 1 304.799 50.607 A 58.581 58.581 0 0 1 304.8 51 A 55.428 55.428 0 0 1 304.233 59.057 A 48.039 48.039 0 0 1 303.6 62.5 Q 302.4 67.9 299.6 72.05 Q 296.8 76.2 292.2 78.6 A 19.918 19.918 0 0 1 287.139 80.381 Q 284.839 80.874 282.179 80.975 A 36.656 36.656 0 0 1 280.8 81 L 267 81 L 267 99 Z M 128.5 21 L 128.5 81 L 104.5 81 L 104.5 24 L 128.5 21 Z M 103.2 9.7 Q 103.2 7 103.8 5.15 Q 104.4 3.3 105.9 2.15 A 7.277 7.277 0 0 1 107.415 1.272 Q 108.532 0.782 110 0.5 A 23.882 23.882 0 0 1 112.05 0.205 Q 114.038 0 116.6 0 A 52.759 52.759 0 0 1 119.179 0.059 Q 121.477 0.172 123.15 0.5 Q 125.7 1 127.2 2.15 Q 128.7 3.3 129.3 5.15 Q 129.9 7 129.9 9.7 Q 129.9 11.759 129.551 13.294 A 9.568 9.568 0 0 1 129.3 14.2 Q 128.7 16 127.2 17.15 A 7.118 7.118 0 0 1 125.625 18.049 Q 124.545 18.504 123.15 18.75 Q 121.437 19.052 119.069 19.152 A 59.146 59.146 0 0 1 116.6 19.2 A 73.579 73.579 0 0 1 113.48 19.137 A 57.38 57.38 0 0 1 111.25 19 A 12.843 12.843 0 0 1 109.096 18.648 A 9.587 9.587 0 0 1 107 17.85 A 6.595 6.595 0 0 1 104.231 15.059 A 7.976 7.976 0 0 1 104.2 15 Q 103.516 13.701 103.3 11.701 A 18.668 18.668 0 0 1 103.2 9.7 Z M 267 41.2 L 267 65.3 L 270.7 65.3 Q 274.208 65.3 276.159 64.728 A 6.487 6.487 0 0 0 277.05 64.4 Q 279 63.5 279 60.2 L 279 36.7 L 275.3 36.7 Q 272.758 36.7 271.171 36.891 A 16.467 16.467 0 0 0 271.1 36.9 Q 269.5 37.1 268.3 38.2 A 3.409 3.409 0 0 0 267.238 39.815 Q 267.038 40.434 267 41.2 Z" vector-effect="non-scaling-stroke"/></g></svg>